<?xml version="1.0" standalone="no"?>
<!DOCTYPE svg PUBLIC "-//W3C//DTD SVG 20010904//EN"
 "http://www.w3.org/TR/2001/REC-SVG-20010904/DTD/svg10.dtd">
<svg version="1.0" xmlns="http://www.w3.org/2000/svg"
 width="80.000000pt" height="80.000000pt" viewBox="0 0 200.000000 200.000000"
 preserveAspectRatio="xMidYMid meet">

<g transform="translate(0.000000,150.000000) scale(0.100000,-0.100000)"
fill="#000000" stroke="none">
<path d="M930 1458 c0 -32 15 -52 34 -45 10 4 16 18 16 37 0 34 -20 42 -21 8
l0 -23 -9 23 c-5 12 -12 22 -15 22 -3 0 -5 -10 -5 -22z"/>
<path d="M1026 1455 c-4 -14 -4 -30 -1 -35 8 -13 45 -13 45 0 0 6 -6 10 -12
10 -10 0 -9 3 1 9 11 7 11 9 0 14 -10 4 -8 6 4 6 24 1 12 21 -13 21 -11 0 -20
-10 -24 -25z"/>
<path d="M847 1453 c-4 -3 -2 -12 3 -19 6 -6 9 -16 8 -22 -3 -10 1 -12 29 -12
13 0 14 3 5 12 -7 7 -12 20 -12 30 0 18 -20 25 -33 11z"/>
<path d="M1114 1435 c-7 -30 3 -46 16 -25 8 13 10 12 10 -2 0 -17 19 -26 21
-10 7 42 2 57 -18 60 -17 3 -24 -3 -29 -23z"/>
<path d="M758 1414 c-9 -9 13 -54 26 -54 22 0 39 18 33 35 -4 9 -11 13 -17 10
-6 -4 -8 -12 -4 -18 3 -7 -3 -2 -13 11 -10 13 -22 20 -25 16z"/>
<path d="M1253 1370 c-12 -32 -3 -40 17 -15 7 8 16 12 21 9 13 -8 11 10 -3 24
-18 18 -22 15 -35 -18z"/>
<path d="M693 1373 c-17 -6 -16 -23 1 -46 12 -15 18 -17 35 -7 12 6 19 15 16
21 -4 5 -11 7 -16 4 -5 -4 -9 -1 -9 5 0 6 -5 8 -12 4 -9 -5 -9 -2 1 9 13 17 8
20 -16 10z"/>
<path d="M1317 1322 c-21 -24 -22 -36 -1 -28 12 4 15 2 11 -9 -11 -26 10 -26
28 1 13 20 14 28 4 40 -15 18 -23 18 -42 -4z"/>
<path d="M1052 1317 c-36 -11 -68 -49 -57 -67 3 -5 24 -10 46 -10 l39 0 0 -72
1 -73 19 24 c16 19 20 38 20 107 0 95 -10 108 -68 91z m28 -41 c0 -3 -4 -8
-10 -11 -5 -3 -10 -1 -10 4 0 6 5 11 10 11 6 0 10 -2 10 -4z"/>
<path d="M620 1295 c-10 -13 -10 -19 5 -35 23 -25 32 -25 45 1 20 37 -23 66
-50 34z m35 -15 c3 -5 2 -10 -4 -10 -5 0 -13 5 -16 10 -3 6 -2 10 4 10 5 0 13
-4 16 -10z"/>
<path d="M1377 1245 c-21 -15 -19 -48 3 -53 18 -3 58 24 48 33 -3 4 -16 2 -27
-5 -12 -6 -21 -7 -21 -1 0 5 7 11 15 15 15 5 21 26 8 26 -5 0 -16 -7 -26 -15z"/>
<path d="M1015 1210 c-4 -6 -55 -10 -119 -10 -88 0 -116 -3 -126 -15 -23 -28
17 -72 42 -47 8 8 5 14 -13 21 l-24 10 27 0 c35 1 67 -41 49 -63 -7 -9 -11
-40 -9 -78 3 -63 3 -63 33 -63 28 0 30 3 33 40 3 33 11 46 44 73 22 17 43 32
47 32 3 0 14 -14 23 -30 10 -18 25 -30 38 -30 11 0 20 -4 20 -10 0 -5 5 -10
10 -10 6 0 10 9 10 20 0 13 -7 20 -20 20 -18 0 -20 7 -20 75 0 68 -2 75 -19
75 -11 0 -23 -4 -26 -10z"/>
<path d="M546 1164 c-8 -22 -9 -21 23 -32 24 -8 31 -7 35 5 11 27 6 36 -11 22
-9 -8 -14 -9 -10 -3 4 7 0 15 -9 18 -21 8 -21 8 -28 -10z"/>
<path d="M1419 1143 c0 -11 -3 -13 -6 -5 -8 20 -22 14 -16 -8 5 -20 43 -29 43
-9 0 5 5 7 10 4 6 -3 10 3 10 14 0 27 -40 30 -41 4z"/>
<path d="M535 1070 c16 -18 16 -20 2 -20 -10 0 -17 -4 -17 -10 0 -5 14 -10 31
-10 23 0 30 4 26 15 -4 8 -2 17 4 20 17 11 -1 25 -33 25 -30 0 -31 0 -13 -20z"/>
<path d="M957 1055 c-22 -20 -28 -32 -25 -58 2 -27 8 -33 31 -35 25 -3 27 -1
27 35 0 21 3 48 6 61 8 28 -4 28 -39 -3z"/>
<path d="M1460 1070 c0 -5 -9 -10 -20 -10 -11 0 -20 -4 -20 -10 0 -5 6 -10 14
-10 8 0 21 -3 30 -6 12 -5 16 0 16 20 0 14 -4 26 -10 26 -5 0 -10 -4 -10 -10z"/>
<path d="M496 857 c-9 -23 -16 -62 -16 -85 0 -38 2 -42 25 -42 18 0 25 5 25
20 0 13 7 20 19 20 10 0 21 -9 24 -20 3 -14 14 -20 31 -20 24 0 26 3 26 42 0
23 -7 62 -16 85 -16 41 -18 43 -59 43 -41 0 -43 -2 -59 -43z m72 -25 c2 -7 -3
-12 -12 -12 -9 0 -16 7 -16 16 0 17 22 14 28 -4z"/>
<path d="M666 842 c-24 -77 -19 -106 17 -110 22 -3 27 1 27 17 0 14 6 21 20
21 13 0 20 -7 20 -20 0 -15 7 -20 25 -20 23 0 25 3 25 49 0 27 -7 65 -15 85
-14 33 -18 36 -59 36 l-43 0 -17 -58z m74 -7 c0 -8 -7 -15 -15 -15 -9 0 -12 6
-9 15 4 8 10 15 15 15 5 0 9 -7 9 -15z"/>
<path d="M830 814 l0 -85 28 3 c23 3 27 8 30 41 l3 38 20 -25 c10 -13 19 -31
19 -40 0 -10 9 -16 25 -16 25 0 25 1 25 85 0 84 0 85 -25 85 -20 0 -25 -5 -25
-27 l0 -27 -28 27 c-15 15 -38 27 -50 27 -21 0 -22 -4 -22 -86z"/>
<path d="M1026 860 c-9 -22 -16 -61 -16 -85 0 -41 2 -45 25 -45 18 0 25 5 25
20 0 13 7 20 19 20 10 0 21 -9 24 -20 3 -14 14 -20 31 -20 23 0 26 4 26 38 0
21 -7 59 -16 85 -16 46 -17 47 -59 47 -41 0 -44 -2 -59 -40z m72 -28 c2 -7 -3
-12 -12 -12 -9 0 -16 7 -16 16 0 17 22 14 28 -4z"/>
<path d="M1190 815 c0 -84 0 -85 25 -85 23 0 25 4 25 42 0 40 0 41 20 23 11
-10 20 -29 20 -42 0 -21 4 -24 28 -21 27 3 27 3 27 83 0 80 0 80 -27 83 -25 3
-28 0 -28 -25 l-1 -28 -24 28 c-13 15 -33 27 -45 27 -19 0 -20 -6 -20 -85z"/>
<path d="M1370 815 l0 -85 60 0 c53 0 61 3 76 25 20 30 15 122 -7 136 -8 5
-40 9 -71 9 l-58 0 0 -85z m90 5 c0 -33 -3 -40 -20 -40 -17 0 -20 7 -20 40 0
33 3 40 20 40 17 0 20 -7 20 -40z"/>
<path d="M667 683 c-4 -3 -7 -19 -7 -35 0 -22 7 -31 33 -42 l32 -14 -32 -1
c-26 -1 -33 -5 -33 -21 0 -17 7 -20 39 -20 23 0 46 7 55 16 30 30 14 73 -28
75 -18 1 -17 2 4 8 14 4 26 15 28 24 3 14 -4 17 -41 17 -24 0 -47 -3 -50 -7z"/>
<path d="M810 660 c-20 -49 -19 -104 3 -108 12 -2 20 3 24 17 3 12 11 21 18
21 7 0 15 -9 18 -21 4 -13 12 -19 24 -17 14 3 18 12 17 43 -1 22 -6 52 -12 68
-9 22 -18 27 -46 27 -28 0 -36 -5 -46 -30z m60 -31 c0 -5 -7 -9 -15 -9 -15 0
-20 12 -9 23 8 8 24 -1 24 -14z"/>
<path d="M952 623 l3 -68 53 -3 52 -3 0 40 c0 34 -3 41 -20 41 -13 0 -20 -7
-20 -20 0 -11 -4 -20 -10 -20 -5 0 -10 23 -10 50 0 47 -2 50 -25 50 -26 0 -26
-1 -23 -67z"/>
<path d="M1100 620 l0 -70 50 0 c43 0 50 3 50 20 0 16 -7 20 -30 20 -16 0 -30
5 -30 10 0 6 11 10 25 10 16 0 25 6 25 15 0 9 -9 15 -25 15 -14 0 -25 5 -25
10 0 6 14 10 30 10 20 0 30 5 30 15 0 11 -12 15 -50 15 l-50 0 0 -70z"/>
<path d="M1235 670 c-10 -31 2 -55 33 -67 l27 -11 -33 -1 c-46 -1 -41 -35 5
-39 50 -5 75 13 71 51 -3 27 -8 33 -33 36 -29 4 -30 4 -5 10 14 4 26 15 28 24
3 14 -5 17 -42 17 -36 0 -46 -4 -51 -20z"/>
</g>
</svg>
